HIERARCHY
ROOT Hips
{
 OFFSET 0.000000 0.000000 0.000000
 CHANNELS 6 Xposition Yposition Zposition Yrotation Xrotation Zrotation
 JOINT Chest
 {
  OFFSET 0.000000 9.585900 0.002600
  CHANNELS 3 Yrotation Xrotation Zrotation
  JOINT Chest2
  {
   OFFSET 0.000000 9.601200 -0.005300
   CHANNELS 3 Yrotation Xrotation Zrotation
   JOINT Chest3
   {
    OFFSET 0.000000 9.561800 0.000000
    CHANNELS 3 Yrotation Xrotation Zrotation
    JOINT Chest4
    {
     OFFSET 0.000000 9.552100 0.000000
     CHANNELS 3 Yrotation Xrotation Zrotation
     JOINT Neck
     {
      OFFSET 0.000000 14.453000 0.000000
      CHANNELS 3 Yrotation Xrotation Zrotation
      JOINT Head
      {
       OFFSET 0.000000 8.936500 -0.011300
       CHANNELS 3 Yrotation Xrotation Zrotation
       End Site
       {
        OFFSET 0.000000 17.073600 -0.006000
       }
      }
     }
     JOINT RightCollar
     {
      OFFSET -2.921100 9.558500 0.000000
      CHANNELS 3 Yrotation Xrotation Zrotation
      JOINT RightShoulder
      {
       OFFSET -13.519700 0.000000 0.000000
       CHANNELS 3 Yrotation Xrotation Zrotation
       JOINT RightElbow
       {
        OFFSET 0.000000 -29.696600 0.000000
        CHANNELS 3 Yrotation Xrotation Zrotation
        JOINT RightWrist
        {
         OFFSET 0.000000 -24.004700 0.000000
         CHANNELS 3 Yrotation Xrotation Zrotation
         End Site
         {
          OFFSET 0.000000 -17.728500 0.000000
         }
        }
       }
      }
     }
     JOINT LeftCollar
     {
      OFFSET 2.921100 9.558500 0.000000
      CHANNELS 3 Yrotation Xrotation Zrotation
      JOINT LeftShoulder
      {
       OFFSET 13.519700 0.000000 0.000000
       CHANNELS 3 Yrotation Xrotation Zrotation
       JOINT LeftElbow
       {
        OFFSET 0.000000 -29.696600 0.000000
        CHANNELS 3 Yrotation Xrotation Zrotation
        JOINT LeftWrist
        {
         OFFSET 0.000000 -24.004700 0.000000
         CHANNELS 3 Yrotation Xrotation Zrotation
         End Site
         {
          OFFSET 0.000000 -17.728500 0.000000
         }
        }
       }
      }
     }
    }
   }
  }
 }
 JOINT RightHip
 {
  OFFSET -7.771700 -0.012900 -0.001300
  CHANNELS 3 Yrotation Xrotation Zrotation
  JOINT RightKnee
  {
   OFFSET 0.000000 -40.869800 0.001200
   CHANNELS 3 Yrotation Xrotation Zrotation
   JOINT RightAnkle
   {
    OFFSET 0.000000 -39.717900 0.002100
    CHANNELS 3 Yrotation Xrotation Zrotation
    JOINT RightToe
    {
     OFFSET 0.000000 -4.965400 11.033500
     CHANNELS 3 Yrotation Xrotation Zrotation
     End Site
     {
      OFFSET 0.000000 -1.423100 5.872300
     }
    }
   }
  }
 }
 JOINT LeftHip
 {
  OFFSET 7.771700 -0.012900 -0.001300
  CHANNELS 3 Yrotation Xrotation Zrotation
  JOINT LeftKnee
  {
   OFFSET 0.000000 -40.869800 0.001200
   CHANNELS 3 Yrotation Xrotation Zrotation
   JOINT LeftAnkle
   {
    OFFSET 0.000000 -39.717900 0.002100
    CHANNELS 3 Yrotation Xrotation Zrotation
    JOINT LeftToe
    {
     OFFSET 0.000000 -4.965400 11.033500
     CHANNELS 3 Yrotation Xrotation Zrotation
     End Site
     {
      OFFSET 0.000000 -1.423100 5.872300
     }
    }
   }
  }
 }
}
MOTION
Frames: 9
Frame Time: 0.008333
0.000000 85.388000 0.000000 0.000000 -5.767877 0.000000 0.000000 11.653817 0.000000 0.000000 -5.885947 0.000000 0.000000 -0.000000 0.000000 0.000000 -0.000000 0.000000 0.000000 12.528835 0.000000 0.000000 0.711642 0.000000 0.000000 -0.000000 0.000000 0.000000 0.000000 -90.000000 0.000000 -2.309062 0.000000 0.000000 2.309062 0.000000 0.000000 -0.000000 0.000000 0.000000 -0.000000 90.000000 0.000000 -2.309062 0.000000 0.000000 2.309062 0.000000 0.000000 8.520406 0.000000 0.000000 1.905762 0.000000 -0.000000 -4.658285 0.000000 0.000000 -0.000000 0.000000 0.000000 8.520406 0.000000 0.000000 1.905762 0.000000 -0.000000 -4.658285 0.000000 0.000000 -0.000000 0.000000
-10.421052 55.139500 34.173592 179.942656 -30.729825 -11.763665 1.183663 15.089459 6.650669 0.358161 8.823926 2.033428 0.498840 11.027405 2.558146 0.294350 8.740798 2.041403 3.397263 20.630612 1.278235 3.278613 -3.862991 0.617633 0.804079 2.691386 -1.180692 -13.707645 -10.789777 5.671466 -85.249193 -73.399765 104.232212 13.819417 1.795933 14.044674 -11.648680 5.487561 -3.807535 9.875761 -4.626589 1.095009 -173.493448 -73.458273 173.113629 18.136373 -6.145550 -22.119587 -17.232209 -34.367729 5.794859 59.321976 84.562032 54.594255 0.114148 -21.090372 3.021732 -1.316694 2.888088 -0.627547 -15.262436 -46.896261 18.611389 176.434120 79.798726 171.276883 -2.373052 -17.818284 2.631998 -0.239137 -0.853931 -0.097551
-10.419491 55.139145 34.167150 179.914720 -30.696017 -11.762305 1.220074 15.104801 6.668447 0.376150 8.833233 2.037085 0.521558 11.039009 2.563221 0.360908 8.811631 2.036235 3.412086 20.660160 1.342941 3.328528 -3.753271 0.660400 0.730903 2.612856 -1.182376 -13.851544 -10.695380 5.731490 -85.195212 -71.381686 104.615589 13.892468 1.923232 16.355901 -11.719801 5.482999 -3.782506 9.972305 -4.734000 1.171843 -179.288199 -72.958389 178.092573 18.855562 -5.521171 -22.746665 -17.249736 -34.395095 5.823413 59.409837 84.552667 54.684851 0.103806 -21.102294 3.007200 -1.342657 2.894642 -0.624359 -15.216180 -46.936566 18.619922 176.491135 79.789208 171.358812 -2.384561 -17.835419 2.634622 -0.233298 -0.851786 -0.086722
-10.418157 55.138338 34.160175 179.874792 -30.652233 -11.752314 1.264348 15.115118 6.687426 0.379234 8.805612 2.035492 0.555954 11.088444 2.574880 0.392982 8.842848 2.042078 3.445497 20.727981 1.386738 3.371383 -3.647725 0.696751 0.682045 2.543322 -1.198528 -13.923116 -10.593858 5.748924 -85.331786 -69.592071 105.157210 13.903401 1.999369 18.373505 -11.762798 5.506995 -3.784316 10.063386 -4.854872 1.219689 174.893247 -72.341008 -176.951090 19.540102 -4.814717 -23.470792 -17.251171 -34.436741 5.853652 59.473730 84.549320 54.750929 0.099911 -21.113549 3.005987 -1.347120 2.900058 -0.627866 -15.160868 -46.986280 18.639009 176.620837 79.781460 171.498357 -2.392068 -17.857104 2.662930 -0.233895 -0.847135 -0.084808
-10.416081 55.137939 34.151936 179.833831 -30.606053 -11.744573 1.311003 15.125708 6.712885 0.401226 8.833595 2.043602 0.546987 11.038229 2.570454 0.429052 8.897424 2.054024 3.485370 20.815039 1.423796 3.407230 -3.545752 0.727959 0.714373 2.612406 -1.238804 -14.010915 -10.619645 5.783271 -85.614097 -68.029292 105.808708 13.844632 1.972021 20.057157 -11.792960 5.548976 -3.791461 10.154836 -4.983869 1.234407 169.224924 -71.570769 -172.179288 20.179032 -4.023289 -24.288465 -17.254784 -34.480455 5.884746 59.558963 84.545542 54.837361 0.124074 -21.120619 2.990044 -1.340636 2.900285 -0.623928 -15.108307 -47.035572 18.660765 176.765660 79.773167 171.654191 -2.395956 -17.885831 2.691359 -0.234910 -0.837807 -0.088108
-10.414117 55.138865 34.140794 179.811633 -30.568985 -11.743746 1.344262 15.147496 6.737856 0.421868 8.862604 2.054130 0.569105 11.053638 2.580894 0.431541 8.884864 2.057309 3.517006 20.898731 1.455514 3.435379 -3.447881 0.755323 0.727976 2.637689 -1.263712 -14.027837 -10.626231 5.757476 -85.999681 -66.665310 106.546715 13.718062 1.848257 21.377224 -11.832106 5.519270 -3.792096 10.270070 -5.049532 1.219322 163.954362 -70.659104 -167.829921 20.777282 -3.172112 -25.171793 -17.279477 -34.509918 5.907772 59.677056 84.542994 54.970877 0.107056 -21.127469 2.952110 -1.300050 2.898115 -0.599687 -15.075752 -47.069685 18.679896 176.979605 79.766446 171.871821 -2.389246 -17.916250 2.716359 -0.234910 -0.827877 -0.089683
-10.416283 55.150591 34.109182 179.628236 -30.698288 -11.633547 1.542427 15.301765 6.740308 0.433402 8.873308 2.061963 0.594228 11.088809 2.596050 0.408011 8.824346 2.046137 3.568500 21.026542 1.497340 3.454915 -3.355858 0.778394 0.754801 2.690701 -1.272932 -14.002847 -10.630100 5.694763 -86.464877 -65.471791 107.362261 13.527386 1.671189 22.334909 -11.828322 5.644334 -3.794289 10.375654 -5.225410 1.156305 159.337979 -69.663614 -164.139761 21.352435 -2.316056 -26.054736 -17.085837 -34.417895 5.853114 59.821045 84.539672 55.100404 0.136047 -21.152532 2.952615 -1.336678 2.907510 -0.608003 -14.761228 -46.824482 18.586547 177.453882 79.843848 172.341509 -2.487026 -18.372584 2.723907 -0.125537 -0.464926 -0.043116
-10.413326 55.152497 34.095884 179.607766 -30.671718 -11.637577 1.580430 15.329647 6.773506 0.443256 8.884529 2.071147 0.606866 11.102796 2.607830 0.431306 8.860171 2.062819 3.568624 21.074833 1.508850 3.468033 -3.270860 0.795726 0.750192 2.670029 -1.300063 -13.961799 -10.651274 5.615935 -86.983542 -64.426491 108.227346 13.278459 1.469183 22.986195 -11.856330 5.685201 -3.790648 10.487119 -5.401061 1.063825 155.568876 -68.659509 -161.252771 21.925563 -1.525009 -26.867030 -17.108332 -34.431915 5.883333 59.893970 84.538491 55.175842 0.119961 -21.161532 2.950793 -1.319101 2.905287 -0.616693 -14.720629 -46.852639 18.595945 177.595734 79.830678 172.504231 -2.499327 -18.388375 2.744224 -0.120810 -0.469356 -0.045161
-10.412310 55.153383 34.083083 179.605634 -30.638127 -11.639637 1.587354 15.325309 6.785537 0.460728 8.927298 2.089072 0.617411 11.116523 2.621071 0.451472 8.895641 2.081636 3.563661 21.116992 1.511577 3.476189 -3.193549 0.806234 0.754596 2.646315 -1.330846 -13.910963 -10.685660 5.535475 -87.509306 -63.502786 109.088161 12.996824 1.243709 23.401171 -11.887940 5.683321 -3.786120 10.611782 -5.543668 0.965040 152.707995 -67.716788 -159.185900 22.504796 -0.853515 -27.562609 -17.140739 -34.454782 5.898211 60.056263 84.534939 55.344867 0.103860 -21.173445 2.926075 -1.289372 2.902146 -0.602648 -14.696996 -46.886661 18.593957 177.713651 79.819757 172.633528 -2.501647 -18.404666 2.762721 -0.117233 -0.471103 -0.044523
